<svg xmlns="http://www.w3.org/2000/svg" viewBox="0 0 600 1000" role="img" aria-label="THE HIEROPHANT sigil tarot draft v3">
<defs>
  <radialGradient id="halo-m5" cx="50%" cy="44%" r="54%">
    <stop offset="0%" stop-color="#E7409B" stop-opacity=".35"/>
    <stop offset="55%" stop-color="#D07725" stop-opacity=".12"/>
    <stop offset="100%" stop-color="#090D1B" stop-opacity="0"/>
  </radialGradient>
  <linearGradient id="spectrum-m5" x1="0" y1="0" x2="1" y2="1">
    <stop offset="0%" stop-color="#E7409B"/><stop offset="52%" stop-color="#E6B85C"/>
    <stop offset="100%" stop-color="#D07725"/>
  </linearGradient>
  <filter id="glow-m5" x="-50%" y="-50%" width="200%" height="200%">
    <feGaussianBlur stdDeviation="3" result="b"/><feMerge><feMergeNode in="b"/><feMergeNode in="SourceGraphic"/></feMerge>
  </filter>
</defs>
<rect width="600" height="1000" fill="#090D1B"/>
<rect width="600" height="1000" fill="url(#halo-m5)"/>
<path d="M35 122V50H108 M492 50H565V122 M35 828V950H108 M492 950H565V828"
      fill="none" stroke="#8992A8" stroke-width="2.8" opacity=".68"/>
<text x="48" y="88" font-family="Georgia,serif" font-size="29" fill="#EEF1EA">V</text>
<text x="552" y="83" text-anchor="end" font-family="Consolas,monospace"
      font-size="12" fill="#8992A8">H6 · O2</text>
<line x1="48" y1="110" x2="552" y2="110" stroke="url(#spectrum-m5)" stroke-width="4"/>
<g data-register="circuit-orbits"><ellipse cx="300" cy="455" rx="150" ry="128" fill="none" stroke="url(#spectrum-m5)" stroke-width="5" opacity="0.78" transform="rotate(7 300 455)"/><ellipse cx="300" cy="455" rx="167" ry="141" fill="none" stroke="url(#spectrum-m5)" stroke-width="3" opacity="0.68" transform="rotate(24 300 455)"/><path d="M300 259 H300.0 V284.5 H300" fill="none" stroke="#E7409B" stroke-width="3.5" opacity=".9"/><circle cx="300" cy="259" r="6" fill="#090D1B" stroke="#E7409B" stroke-width="3"/><path d="M300 600 H300.0 V625.5 H300" fill="none" stroke="#E7409B" stroke-width="3.5" opacity=".9"/><circle cx="300" cy="600" r="6" fill="#090D1B" stroke="#E7409B" stroke-width="3"/><path d="M103 455 H130.0 V455.0 H157" fill="none" stroke="#E7409B" stroke-width="3.5" opacity=".9"/><circle cx="103" cy="455" r="6" fill="#090D1B" stroke="#E7409B" stroke-width="3"/><path d="M443 455 H470.0 V455.0 H497" fill="none" stroke="#E7409B" stroke-width="3.5" opacity=".9"/><circle cx="443" cy="455" r="6" fill="#090D1B" stroke="#E7409B" stroke-width="3"/></g>
<path data-register="cymatic" d="M195.0 690.0 L199.4 690.8 L203.8 692.3 L208.1 692.5 L212.5 690.0 L216.9 685.9 L221.2 683.1 L225.6 684.4 L230.0 690.0 L234.4 697.1 L238.8 701.0 L243.1 698.4 L247.5 690.0 L251.9 680.4 L256.2 675.7 L260.6 679.4 L265.0 690.0 L269.4 701.4 L273.8 706.6 L278.1 702.1 L282.5 690.0 L286.9 677.5 L291.2 672.2 L295.6 677.3 L300.0 690.0 L304.4 702.7 L308.8 707.8 L313.1 702.5 L317.5 690.0 L321.9 677.9 L326.2 673.4 L330.6 678.6 L335.0 690.0 L339.4 700.6 L343.8 704.3 L348.1 699.6 L352.5 690.0 L356.9 681.6 L361.2 679.0 L365.6 682.9 L370.0 690.0 L374.4 695.6 L378.8 696.9 L383.1 694.1 L387.5 690.0 L391.9 687.5 L396.2 687.7 L400.6 689.2 L405.0 690.0" fill="none"
      stroke="url(#spectrum-m5)" stroke-width="4" opacity=".92"/>
<g data-register="music" stroke="#8992A8" stroke-width="1.8" opacity=".82"><line x1="202" y1="719" x2="398" y2="719"/><line x1="202" y1="728" x2="398" y2="728"/><line x1="202" y1="737" x2="398" y2="737"/><line x1="202" y1="746" x2="398" y2="746"/><line x1="202" y1="755" x2="398" y2="755"/></g><circle cx="234" cy="755" r="6" fill="#D07725"/><circle cx="278" cy="737" r="6" fill="#D07725"/><circle cx="322" cy="719" r="6" fill="#D07725"/><circle cx="366" cy="746" r="6" fill="#D07725"/>
<g data-register="trigram" stroke="#8992A8" stroke-width="6" stroke-linecap="square"><line x1="64" y1="752" x2="118" y2="752"/><line x1="64" y1="768" x2="86" y2="768"/><line x1="96" y1="768" x2="118" y2="768"/><line x1="64" y1="784" x2="118" y2="784"/></g>
<g data-register="gray-code"><rect x="424" y="750" width="15" height="42" rx="2.5" fill="none" stroke="#8992A8" stroke-width="2.5"/><rect x="447" y="750" width="15" height="42" rx="2.5" fill="none" stroke="#8992A8" stroke-width="2.5"/><rect x="470" y="750" width="15" height="42" rx="2.5" fill="#E6B85C" stroke="#8992A8" stroke-width="2.5"/><rect x="493" y="750" width="15" height="42" rx="2.5" fill="#E6B85C" stroke="#8992A8" stroke-width="2.5"/><rect x="516" y="750" width="15" height="42" rx="2.5" fill="#E6B85C" stroke="#8992A8" stroke-width="2.5"/></g>
<g stroke="#E7409B" stroke-width="3"><polygon points="145,704 132,678 158,678" fill="none"/></g>
<text x="300" y="858" text-anchor="middle" font-family="Georgia,serif"
      font-size="27" letter-spacing="3" fill="#EEF1EA">THE HIEROPHANT</text>
<text x="300" y="895" text-anchor="middle" font-family="Arial,sans-serif"
      font-size="11.5" letter-spacing="1.4" fill="#E7409B">TRADITION / TRANSMISSION · TRANSMIT TRADITION</text>
<text x="48" y="932" font-family="Consolas,monospace" font-size="11"
      fill="#8992A8">fire</text>
<text x="552" y="932" text-anchor="end" font-family="Consolas,monospace"
      font-size="11" fill="#8992A8">wood</text>
<g data-card-topology="05-the-hierophant"><polygon points="300.0,310.0 437.9,410.2 385.2,572.3 214.8,572.3 162.1,410.2" stroke="#E7409B" stroke-width="7" fill="none" stroke-linecap="round" stroke-linejoin="round"/><path d="M235 560V423Q300 338 365 423V560" stroke="#D07725" stroke-width="4" fill="none" stroke-linecap="round" stroke-linejoin="round"/><circle cx="300.0" cy="310.0" r="6" fill="#E6B85C"/><circle cx="437.90319486279725" cy="410.19253581563265" r="6" fill="#E6B85C"/><circle cx="385.2288615824086" cy="572.3074641843674" r="6" fill="#E6B85C"/><circle cx="214.77113841759143" cy="572.3074641843674" r="6" fill="#E6B85C"/><circle cx="162.09680513720272" cy="410.19253581563265" r="6" fill="#E6B85C"/></g></svg>
